<?xml version="1.0" standalone="no"?>
<!DOCTYPE svg PUBLIC "-//W3C//DTD SVG 20010904//EN"
 "http://www.w3.org/TR/2001/REC-SVG-20010904/DTD/svg10.dtd">
<svg version="1.0" xmlns="http://www.w3.org/2000/svg"
 width="968.000000pt" height="968.000000pt" viewBox="0 0 968.000000 968.000000"
 preserveAspectRatio="xMidYMid meet">
<metadata>
Created by potrace 1.11, written by Peter Selinger 2001-2013
</metadata>
<g transform="translate(0.000000,968.000000) scale(0.100000,-0.100000)"
fill="#000000" stroke="none">
<path d="M1570 4840 l0 -4840 890 0 890 0 0 1726 c0 985 4 1733 9 1742 5 9 11
35 15 57 9 60 16 96 28 140 6 22 12 45 14 50 1 6 10 33 19 60 70 203 210 422
370 578 53 52 208 177 220 177 3 0 21 11 38 24 81 59 421 197 447 181 5 -3 11
-2 14 3 2 4 20 9 38 10 19 1 45 5 58 8 41 9 161 19 220 18 129 -3 190 -8 190
-13 0 -3 15 -6 33 -7 48 -1 85 -9 212 -43 148 -41 373 -161 511 -273 90 -73
284 -290 284 -317 0 -6 3 -11 8 -11 15 0 152 -264 168 -325 2 -5 14 -48 27
-95 13 -47 25 -89 26 -95 1 -5 4 -19 6 -30 2 -11 6 -37 9 -58 2 -20 8 -43 13
-50 5 -7 8 -751 8 -1735 l-1 -1722 888 0 889 0 -4 1768 c-2 972 -7 1787 -10
1812 -4 25 -9 65 -11 90 -3 25 -5 45 -6 45 -1 0 -3 16 -6 35 -2 19 -6 44 -9
56 -2 12 -7 39 -10 60 -10 62 -12 74 -35 164 -24 95 -22 88 -39 150 -8 25 -14
50 -16 55 -1 6 -5 18 -8 28 -4 9 -10 25 -14 35 -3 9 -7 22 -9 29 -4 19 -63
174 -85 220 -10 24 -19 45 -19 48 0 12 -131 267 -170 331 -22 36 -40 68 -40
70 0 3 -5 10 -10 17 -6 7 -25 35 -43 62 -17 28 -35 55 -40 60 -4 6 -32 44 -62
85 -61 84 -92 122 -150 188 -22 25 -48 54 -58 66 -65 75 -210 214 -318 306
-107 91 -329 250 -348 250 -6 0 -11 4 -11 9 0 5 -9 13 -20 16 -11 3 -26 12
-33 18 -35 32 -467 245 -467 230 0 -3 -6 -1 -13 5 -7 6 -60 27 -118 47 -57 20
-111 38 -119 41 -8 3 -17 6 -20 6 -3 0 -25 7 -50 15 -25 8 -55 16 -67 19 -12
2 -69 15 -125 28 -57 13 -121 27 -143 30 -22 3 -51 8 -65 10 -74 13 -129 19
-289 31 -164 12 -465 7 -548 -10 -12 -2 -46 -6 -75 -9 -59 -7 -233 -36 -293
-49 -133 -30 -372 -102 -445 -134 -8 -3 -20 -7 -25 -8 -23 -5 -208 -87 -250
-111 l-45 -25 -1 43 c0 24 -1 809 -1 1746 l0 1702 -899 0 -899 0 0 -4840z"/>
</g>
</svg>
