<svg xmlns="http://www.w3.org/2000/svg" viewBox="0 0 623.95 190.86"><defs><style>.cls-1{fill:#3b3a3e;}</style></defs><title>Asset 1</title><g id="Layer_2" data-name="Layer 2"><g id="Layer_1-2" data-name="Layer 1"><path class="cls-1" d="M583,39.23A40.92,40.92,0,1,0,624,80.14,40.91,40.91,0,0,0,583,39.23Zm0,59.56a18.65,18.65,0,1,1,18.64-18.65A18.65,18.65,0,0,1,583,98.79Z"/><path class="cls-1" d="M81.81,79.75a40.91,40.91,0,0,0-40.9-40.52c-.77,0-1.55,0-2.31.07l-.68.05c-.54,0-1.09.09-1.63.15l-.72.09c-.54.07-1.07.15-1.6.24l-.63.11c-.6.12-1.18.24-1.77.38l-.41.09a40.38,40.38,0,0,0-8.67,3.21h0V0H0V121.06H22.27V77.78h.16a18.63,18.63,0,0,1,37,0h.16v43.28H81.82V79.75Z"/><rect class="cls-1" x="329.94" y="39.26" width="22.49" height="81.79"/><rect class="cls-1" x="329.94" y="0.12" width="22.49" height="22.49"/><rect class="cls-1" x="134.09" y="39.26" width="22.49" height="81.79"/><rect class="cls-1" x="134.09" y="0.12" width="22.49" height="22.49"/><path class="cls-1" d="M233.21,121.06V80.4c0-.07,0-.15,0-.23a18.63,18.63,0,0,1,29.55-15.1l15.84-15.84a40.9,40.9,0,0,0-67.66,30.94c0,1.06.06,2.1.14,3.14v37.75Z"/><path class="cls-1" d="M498.51,42h0V30.47H476.09V44a18.62,18.62,0,0,1-17.61,16.23v0h-.31l-.38,0h-.35l-.39,0H439.19V.71H416.7V121.06h22.49V82.53h18.6a18.63,18.63,0,0,1,18.3,16.27v22.26h22.43V100.77h0a40.79,40.79,0,0,0-12.86-29.38A40.75,40.75,0,0,0,498.51,42Z"/><path class="cls-1" d="M162.94,176.1c0,.45-.06.91-.06,1.37H137.06c.68,6.44,5.58,10.66,12.08,10.66,4.68,0,8.21-2.17,9.86-5.19l2.51,1.48c-2.34,3.88-6.78,6.44-12.43,6.44-8.77,0-15-6.27-15-14.88,0-8.38,6-14.87,14.77-14.87S162.94,168.29,162.94,176.1Zm-25.88-1.43H160c-.62-6.95-5.53-10.83-11.11-10.83A11.49,11.49,0,0,0,137.06,174.67Z"/><path class="cls-1" d="M218.08,182.77c0,4.67-4.1,8.09-10.2,8.09-5.7,0-9.47-2.68-10.83-6.33l2.45-1.42c1,3.08,4.1,5,8.38,5,4,0,7.35-1.77,7.35-5.36,0-7.76-17.27-3.31-17.27-13.57,0-4.5,3.87-8.09,9.69-8.09,4.62,0,8.15,2.22,9.69,5.7L215,168.17c-1.2-3-4.17-4.33-7.3-4.33-3.71,0-6.84,1.94-6.84,5.36C200.81,176.84,218.08,172.34,218.08,182.77Z"/><path class="cls-1" d="M259.44,164.53v18.52c0,5,2.68,5.13,8.49,4.62v2.57c-7.47,1.14-11.4-.69-11.4-7.19V164.53h-6.27v-2.8h6.27v-7.12l2.91-.86v8h8.49v2.8Z"/><path class="cls-1" d="M327.64,161.73v28.51h-2.85v-5.42a10.74,10.74,0,0,1-10.2,6c-6.79,0-11.06-4.5-11.06-11.4V161.73h2.9v17.73c0,5.25,3,8.67,8.38,8.67,5.59,0,10-3.65,10-11.35V161.73Z"/><path class="cls-1" d="M393.91,150.33v39.91h-2.86v-6.62a13.49,13.49,0,0,1-12.25,7.24,14.88,14.88,0,0,1,0-29.75,13.5,13.5,0,0,1,12.25,7.23v-18ZM391.05,176A12.09,12.09,0,1,0,379,188.13,12,12,0,0,0,391.05,176Z"/><path class="cls-1" d="M431.32,152.55a2.29,2.29,0,1,1,2.28,2.28A2.28,2.28,0,0,1,431.32,152.55Zm.86,9.18H435v28.51h-2.85Z"/><path class="cls-1" d="M468.8,176a15,15,0,1,1,15,14.88A14.77,14.77,0,0,1,468.8,176Zm27,0a12.06,12.06,0,1,0-12,12.15A12,12,0,0,0,495.82,176Z"/></g></g></svg>